<svg xmlns="http://www.w3.org/2000/svg" viewBox="0 0 262.26 53.33"><g id="Layer_2" data-name="Layer 2"><g id="Layer_1-2" data-name="Layer 1"><path d="M17.67,39.77H44.34V53.33H0V0H43.34V13.56H17.67Zm-1.21-20H40.22v13H16.46Z"/><path d="M128.31,46.34q-31,0-52-5.67T55.2,26.13q0-9,21.06-14.47t52.05-5.44q31,0,52.07,5.44t21,14.47q0,8.86-21,14.54T128.31,46.34Z"/><path d="M212.28,53.33V0H238a31.36,31.36,0,0,1,12.92,2.44,19.14,19.14,0,0,1,8.42,7,19.08,19.08,0,0,1,3,10.7,18.91,18.91,0,0,1-3,10.67,19.54,19.54,0,0,1-8.42,7A31,31,0,0,1,238,40.22H222.26l8-7.69v20.8Zm18-18.82-8-8.15h14.55q3.74,0,5.53-1.68a6,6,0,0,0,1.79-4.57,6,6,0,0,0-1.79-4.57q-1.8-1.68-5.53-1.68H222.26l8-8.15Z"/></g></g></svg>