<svg version="1.1" xmlns="http://www.w3.org/2000/svg" xmlns:xlink="http://www.w3.org/1999/xlink" width="262.26px" height="53.33px" viewBox="0,0,256,52.04688"><g fill-opacity="0" fill="#dddddd" fill-rule="nonzero" stroke="none" stroke-width="1" stroke-linecap="butt" stroke-linejoin="miter" stroke-miterlimit="10" stroke-dasharray="" stroke-dashoffset="0" font-family="none" font-weight="none" font-size="none" text-anchor="none" style="mix-blend-mode: normal"><path d="M0,52.04688v-52.04687h256v52.04688z" id="bgRectangle"></path></g><g fill="#ffffff" fill-rule="nonzero" stroke="none" stroke-width="1" stroke-linecap="butt" stroke-linejoin="miter" stroke-miterlimit="10" stroke-dasharray="" stroke-dashoffset="0" font-family="none" font-weight="none" font-size="none" text-anchor="none" style="mix-blend-mode: normal"><g transform="translate(-0.04156,-0.00047) scale(0.97613,0.97613)"><g id="Layer_2"><g id="Layer_1-2"><path d="M17.67,39.77h26.67v13.56h-44.34v-53.33h43.34v13.56h-25.67zM16.46,19.77h23.76v13h-23.76z"></path><path d="M128.31,46.34c-20.66667,0 -38,-1.89 -52,-5.67c-14,-3.78 -21.03667,-8.62667 -21.11,-14.54c0,-6 7.02,-10.82333 21.06,-14.47c14.04,-3.64667 31.39,-5.46 52.05,-5.44c20.66667,0 38.02333,1.81333 52.07,5.44c14.04667,3.62667 21.04667,8.45 21,14.47c0,5.90667 -7,10.75333 -21,14.54c-14,3.78667 -31.35667,5.67667 -52.07,5.67z"></path><path d="M212.28,53.33v-53.33h25.72c4.4307,-0.10878 8.83414,0.72283 12.92,2.44c3.42845,1.46359 6.35489,3.8965 8.42,7c2.03951,3.19 3.08381,6.91468 3,10.7c0.08818,3.77648 -0.95671,7.49281 -3,10.67c-2.08218,3.08811 -5.00356,5.51682 -8.42,7c-4.08492,1.71753 -8.49058,2.53933 -12.92,2.41h-15.74l8,-7.69v20.8zM230.28,34.51l-8,-8.15h14.55c2.49333,0 4.33667,-0.56 5.53,-1.68c1.22092,-1.19847 1.87217,-2.86113 1.79,-4.57c0.08217,-1.70887 -0.56908,-3.37153 -1.79,-4.57c-1.2,-1.12 -3.04333,-1.68 -5.53,-1.68h-14.57l8,-8.15z"></path></g></g></g></g></svg>